<?xml version="1.0" encoding="UTF-8" standalone="no"?>
<svg
   xmlns:dc="http://purl.org/dc/elements/1.1/"
   xmlns:cc="http://creativecommons.org/ns#"
   xmlns:rdf="http://www.w3.org/1999/02/22-rdf-syntax-ns#"
   xmlns:svg="http://www.w3.org/2000/svg"
   xmlns="http://www.w3.org/2000/svg"
   xmlns:sodipodi="http://sodipodi.sourceforge.net/DTD/sodipodi-0.dtd"
   xmlns:inkscape="http://www.inkscape.org/namespaces/inkscape"
   inkscape:version="1.0 (4035a4fb49, 2020-05-01)"
   sodipodi:docname="Logo SUPINFO International University Vertical - Blanc sur Noir - RVB 150dpi.svg"
   id="svg18"
   preserveAspectRatio="xMidYMid meet"
   viewBox="0 0 600.000000 600.000000"
   height="600.000000pt"
   width="600.000000pt"
   version="1.0">
  <defs
     id="defs22" />
  <sodipodi:namedview
     inkscape:current-layer="svg18"
     inkscape:window-maximized="1"
     inkscape:window-y="-9"
     inkscape:window-x="-9"
     inkscape:cy="400"
     inkscape:cx="400"
     inkscape:zoom="1.26"
     showgrid="false"
     id="namedview20"
     inkscape:window-height="1361"
     inkscape:window-width="2560"
     inkscape:pageshadow="2"
     inkscape:pageopacity="0"
     guidetolerance="10"
     gridtolerance="10"
     objecttolerance="10"
     borderopacity="1"
     bordercolor="#666666"
     pagecolor="#ffffff" />
  <metadata
     id="metadata2">
Created by potrace 1.16, written by Peter Selinger 2001-2019
<rdf:RDF>
  <cc:Work
     rdf:about="">
    <dc:format>image/svg+xml</dc:format>
    <dc:type
       rdf:resource="http://purl.org/dc/dcmitype/StillImage" />
  </cc:Work>
</rdf:RDF>
</metadata>
  <g
     id="g16"
     stroke="none"
     fill="#000000"
     transform="translate(0.000000,600.000000) scale(0.100000,-0.100000)">
    <path
       id="path4"
       d="M0 3000 l0 -3000 3000 0 3000 0 0 3000 0 3000 -3000 0 -3000 0 0 -3000z m3255 2412 c271 -58 492 -179 690 -377 279 -278 416 -625 402 -1015 -17 -444 -238 -839 -608 -1086 -141 -94 -235 -135 -468 -203 -21 -6 1 -21 149 -102 l173 -94 -326 -3 c-180 -1 -474 -1 -653 0 l-326 3 139 75 c76 41 160 86 186 101 l48 26 -97 32 c-111 37 -251 105 -336 163 -32 21 -58 40 -58 42 0 2 36 -17 80 -44 129 -78 350 -160 429 -160 22 0 30 -20 9 -20 -38 -1 30 -20 107 -31 95 -12 392 -8 415 6 9 6 2 14 -23 26 -31 16 -42 17 -94 7 -66 -13 -327 -14 -360 -2 -19 8 -7 17 93 72 l114 63 104 -55 c57 -31 114 -56 126 -56 34 0 191 55 267 94 339 172 578 519 639 927 21 144 15 380 -14 514 -113 520 -483 891 -972 971 -70 12 -132 15 -235 10 -209 -8 -335 -40 -520 -131 -304 -150 -536 -418 -645 -743 -41 -123 -60 -244 -61 -396 -2 -128 -2 -129 -10 -56 -17 146 9 357 66 527 165 494 576 842 1095 928 115 19 355 13 475 -13z m190 -1073 c-22 -5 -110 -20 -195 -34 -445 -73 -877 -204 -1205 -365 -200 -98 -299 -163 -396 -259 -87 -86 -118 -141 -126 -216 -10 -99 62 -207 178 -265 176 -90 540 -77 918 32 l115 33 1 50 c2 92 53 159 142 185 89 27 195 -36 222 -132 50 -179 -169 -311 -305 -183 l-37 35 -151 -49 c-144 -47 -367 -102 -468 -116 -29 -5 -45 -11 -41 -18 4 -6 1 -7 -6 -2 -7 4 -79 2 -160 -5 -314 -26 -545 34 -647 168 -105 138 -73 290 96 463 47 47 123 113 170 145 408 284 1098 494 1746 533 178 11 200 11 149 0z m545 7 c0 -6 -105 -37 -470 -136 -740 -201 -1083 -316 -1362 -456 -367 -184 -477 -362 -335 -539 l32 -40 -35 25 c-58 40 -126 116 -150 165 -26 55 -29 124 -7 178 23 53 108 140 196 199 306 204 1022 416 1946 577 192 33 185 32 185 27z m262 -2313 c-688 -2 -1816 -2 -2505 0 -688 1 -125 2 1253 2 1378 0 1941 -1 1252 -2z m468 -368 c0 -59 -4 -95 -10 -95 -6 0 -13 7 -16 15 -5 13 -40 15 -230 15 l-224 0 0 -70 0 -70 150 0 c127 0 150 2 150 15 0 8 5 15 10 15 6 0 10 -37 10 -90 0 -83 -9 -112 -24 -75 -4 12 -31 15 -151 15 l-145 0 0 -134 c0 -110 3 -135 15 -140 8 -3 15 -10 15 -16 0 -6 -41 -10 -110 -10 -69 0 -110 4 -110 10 0 6 7 13 15 16 23 9 23 629 0 638 -8 3 -15 10 -15 16 0 7 107 10 319 10 274 0 320 2 325 15 3 8 10 15 16 15 6 0 10 -36 10 -95z m-3700 33 c47 -17 100 -31 118 -30 17 0 32 -1 32 -4 0 -2 -18 -40 -40 -84 -40 -79 -61 -94 -73 -50 -12 45 -183 98 -275 84 -89 -13 -143 -62 -111 -100 21 -25 48 -32 172 -43 189 -18 278 -55 317 -131 39 -77 21 -159 -47 -221 -69 -63 -138 -83 -278 -83 -108 0 -128 3 -195 28 -41 16 -90 29 -107 28 -18 0 -33 1 -33 3 0 14 70 160 78 163 5 1 12 -6 15 -18 12 -46 194 -98 296 -84 27 3 66 16 87 28 34 19 39 26 39 56 0 49 -30 60 -204 76 -118 11 -154 18 -197 39 -113 55 -137 184 -52 280 93 107 271 131 458 63z m4243 12 c107 -40 191 -127 218 -223 15 -53 15 -150 1 -203 -27 -95 -113 -183 -220 -226 -83 -32 -242 -32 -327 2 -87 34 -184 133 -209 213 -25 79 -19 195 13 260 27 57 99 130 152 158 106 54 260 62 372 19z m-3803 11 c0 -5 -7 -14 -15 -21 -23 -19 -22 -412 2 -471 22 -56 71 -79 173 -79 96 0 150 23 173 73 25 51 25 472 1 481 -8 3 -12 10 -9 16 8 14 215 13 215 0 0 -6 -7 -13 -15 -16 -13 -5 -15 -40 -15 -228 0 -249 -9 -301 -61 -361 -43 -48 -122 -76 -240 -82 -107 -6 -213 8 -269 37 -49 25 -96 80 -109 127 -6 21 -11 137 -11 264 0 189 -2 229 -15 239 -30 25 -13 30 90 30 58 0 105 -4 105 -9z m1191 -10 c123 -39 180 -157 130 -267 -10 -22 -31 -51 -47 -63 -61 -48 -90 -54 -276 -59 l-178 -4 0 -118 c0 -107 2 -120 20 -133 11 -8 17 -17 13 -20 -10 -10 -213 -8 -213 2 0 5 7 14 15 21 13 11 15 58 15 315 0 257 -2 304 -15 315 -8 7 -15 17 -15 22 0 14 505 4 551 -11z m429 9 c0 -6 -7 -13 -15 -16 -13 -5 -15 -50 -15 -319 0 -269 2 -314 15 -319 8 -3 15 -10 15 -16 0 -6 -41 -10 -110 -10 -69 0 -110 4 -110 10 0 6 7 13 15 16 23 9 23 629 0 638 -8 3 -15 10 -15 16 0 6 41 10 110 10 69 0 110 -4 110 -10z m340 -4 c0 -8 -5 -16 -11 -18 -22 -7 7 -40 195 -228 l186 -185 0 198 c0 183 -1 198 -19 214 -11 9 -18 20 -15 25 7 11 194 10 194 -1 0 -5 -7 -14 -15 -21 -13 -11 -15 -59 -15 -320 0 -264 2 -309 15 -314 8 -3 15 -10 15 -16 0 -11 -212 -15 -223 -4 -3 3 -1 14 5 24 10 16 -6 37 -119 157 -72 76 -163 169 -202 208 l-71 69 0 -211 c0 -200 1 -213 20 -226 11 -8 17 -17 13 -20 -10 -10 -193 -8 -193 2 0 5 7 14 15 21 13 11 15 58 15 315 0 257 -2 304 -15 315 -8 7 -15 16 -15 21 0 5 54 9 120 9 97 0 120 -3 120 -14z m730 -932 c0 -110 9 -134 49 -134 45 0 55 22 59 131 3 55 8 99 13 99 5 0 9 -49 9 -110 0 -97 -2 -112 -20 -130 -26 -26 -80 -26 -111 -1 -22 18 -24 28 -27 130 -3 96 -2 111 12 111 14 0 16 -15 16 -96z m1140 66 c0 -25 4 -30 24 -30 30 0 37 -10 66 -87 12 -35 24 -63 25 -63 2 0 13 29 26 65 22 64 43 94 55 82 7 -7 -82 -236 -97 -251 -15 -17 -22 2 -11 33 9 24 5 43 -21 110 -23 60 -35 81 -49 81 -16 0 -18 -9 -18 -86 0 -64 -3 -85 -12 -82 -9 3 -14 32 -16 86 -2 64 -6 82 -17 82 -8 0 -15 7 -15 15 0 8 7 15 15 15 10 0 15 10 15 30 0 20 5 30 15 30 10 0 15 -10 15 -30z m-2679 -59 c17 -17 29 -40 29 -55 0 -26 0 -26 -85 -26 l-86 0 12 -22 c16 -31 28 -38 65 -38 18 0 38 8 49 20 10 11 22 20 27 20 17 0 7 -30 -18 -49 -81 -64 -193 30 -148 124 29 61 106 74 155 26z m477 13 c20 -14 22 -14 22 1 0 9 6 15 13 13 8 -3 12 -32 12 -98 0 -66 -4 -95 -12 -98 -7 -2 -13 3 -13 12 0 13 -3 13 -28 -1 -83 -47 -175 51 -128 136 26 47 92 65 134 35z m388 -2 c54 -43 55 -112 3 -156 -73 -62 -173 2 -155 98 13 66 101 100 152 58z m396 7 c16 -8 22 -8 29 2 6 10 11 11 19 3 16 -16 9 -186 -7 -192 -7 -2 -13 4 -13 13 0 15 -2 15 -22 1 -62 -44 -148 5 -148 84 0 75 77 124 142 89z m1029 -18 c17 -17 29 -40 29 -55 0 -26 -1 -26 -80 -26 -84 0 -95 -7 -63 -42 22 -24 71 -23 99 3 38 35 54 17 17 -19 -53 -54 -129 -38 -158 32 -18 42 -8 81 27 111 42 35 91 34 129 -4z" />
    <path
       id="path6"
       d="M5012 1605 c-101 -31 -152 -105 -152 -221 0 -86 26 -136 93 -181 76 -51 192 -56 279 -12 106 54 146 195 88 309 -50 97 -185 144 -308 105z" />
    <path
       id="path8"
       d="M2280 1526 l0 -86 128 0 c147 1 200 10 225 41 26 32 18 77 -16 103 -25 19 -45 21 -183 25 l-154 3 0 -86z" />
    <path
       id="path10"
       d="M2990 770 c-42 -42 -11 -120 48 -120 33 0 45 8 61 37 16 32 14 56 -9 81 -26 28 -73 29 -100 2z" />
    <path
       id="path12"
       d="M3366 768 c-36 -51 -5 -118 54 -118 58 0 89 68 54 118 -11 16 -25 22 -54 22 -29 0 -43 -6 -54 -22z" />
    <path
       id="path14"
       d="M3776 768 c-36 -51 -8 -118 49 -118 36 0 75 36 75 70 0 10 -9 29 -21 44 -27 34 -81 36 -103 4z" />
  </g>
  <rect
     y="511.90475"
     x="-7.4051876e-14"
     height="88.095238"
     width="600"
     id="rect24"
     style="fill:#000000;fill-rule:evenodd;stroke-width:0.749628" />
</svg>
